<?xml version="1.0" encoding="UTF-8"?>
<svg version="1.1" xmlns="http://www.w3.org/2000/svg" width="500" height="500">
<path d="M0 0 C165 0 330 0 500 0 C500 165 500 330 500 500 C335 500 170 500 0 500 C0 335 0 170 0 0 Z " fill="#886AFD" transform="translate(0,0)"/>
<path d="M0 0 C1.2694043 0.00676758 2.53880859 0.01353516 3.84667969 0.02050781 C40.96787009 0.42677179 76.45179297 11.75811527 106.8125 33.25 C107.41368652 33.67474609 108.01487305 34.09949219 108.63427734 34.53710938 C145.36283951 60.93992085 170.25243119 102.04008427 178.8125 146.25 C179.08211548 147.62575195 179.08211548 147.62575195 179.35717773 149.02929688 C180.89570689 157.82924511 181.12005325 166.42160283 181.07324219 175.32470703 C181.06251473 177.74667382 181.07320331 180.1678992 181.0859375 182.58984375 C181.09399079 191.67111912 180.48955041 200.29767615 178.8125 209.25 C178.60569378 210.60471739 178.40309522 211.96009252 178.20703125 213.31640625 C175.58845763 229.04542229 169.98921396 244.03833433 162.8125 258.25 C162.3781665 259.12833496 162.3781665 259.12833496 161.93505859 260.02441406 C141.07137728 302.01657222 103.19032914 333.43961895 59.09375 348.53125 C52.0795601 350.84924409 45.07074543 352.8331332 37.8125 354.25 C37.07370605 354.39808105 36.33491211 354.54616211 35.57373047 354.69873047 C11.73503366 359.28290545 -12.56672486 358.58236304 -36.1875 353.25 C-36.93660645 353.08983398 -37.68571289 352.92966797 -38.45751953 352.76464844 C-73.96842152 345.13259969 -109.12728556 324.48129283 -132.1875 296.25 C-132.62175293 295.7334082 -133.05600586 295.21681641 -133.50341797 294.68457031 C-141.04647555 285.70750012 -147.57332422 276.54751751 -153.1875 266.25 C-153.5273291 265.6307666 -153.8671582 265.0115332 -154.21728516 264.37353516 C-162.18195505 249.66689217 -168.87645658 233.67979877 -172.1875 217.25 C-172.37828125 216.39535156 -172.5690625 215.54070312 -172.765625 214.66015625 C-177.80786078 191.28579183 -177.73510803 162.48060864 -172.1875 139.25 C-171.99414062 138.41871582 -171.80078125 137.58743164 -171.6015625 136.73095703 C-165.92403108 113.10524178 -155.14952627 90.42289594 -140.1875 71.25 C-139.55199219 70.42242187 -138.91648438 69.59484375 -138.26171875 68.7421875 C-131.02287712 59.48691504 -123.32332783 50.67091134 -114.1875 43.25 C-112.71410156 42.02023438 -112.71410156 42.02023438 -111.2109375 40.765625 C-80.09161004 15.22100322 -40.45772652 -0.3141296 0 0 Z " fill="#886AFD" transform="translate(215.1875,86.75)"/>
<path d="M0 0 C1.2694043 0.00676758 2.53880859 0.01353516 3.84667969 0.02050781 C40.96787009 0.42677179 76.45179297 11.75811527 106.8125 33.25 C107.41368652 33.67474609 108.01487305 34.09949219 108.63427734 34.53710938 C145.36283951 60.93992085 170.25243119 102.04008427 178.8125 146.25 C179.08211548 147.62575195 179.08211548 147.62575195 179.35717773 149.02929688 C180.89570689 157.82924511 181.12005325 166.42160283 181.07324219 175.32470703 C181.06251473 177.74667382 181.07320331 180.1678992 181.0859375 182.58984375 C181.09399079 191.67111912 180.48955041 200.29767615 178.8125 209.25 C178.60569378 210.60471739 178.40309522 211.96009252 178.20703125 213.31640625 C175.58845763 229.04542229 169.98921396 244.03833433 162.8125 258.25 C162.3781665 259.12833496 162.3781665 259.12833496 161.93505859 260.02441406 C141.07137728 302.01657222 103.19032914 333.43961895 59.09375 348.53125 C52.0795601 350.84924409 45.07074543 352.8331332 37.8125 354.25 C37.07370605 354.39808105 36.33491211 354.54616211 35.57373047 354.69873047 C11.73503366 359.28290545 -12.56672486 358.58236304 -36.1875 353.25 C-36.93660645 353.08983398 -37.68571289 352.92966797 -38.45751953 352.76464844 C-73.96842152 345.13259969 -109.12728556 324.48129283 -132.1875 296.25 C-132.62175293 295.7334082 -133.05600586 295.21681641 -133.50341797 294.68457031 C-141.04647555 285.70750012 -147.57332422 276.54751751 -153.1875 266.25 C-153.5273291 265.6307666 -153.8671582 265.0115332 -154.21728516 264.37353516 C-162.18195505 249.66689217 -168.87645658 233.67979877 -172.1875 217.25 C-172.37828125 216.39535156 -172.5690625 215.54070312 -172.765625 214.66015625 C-177.80786078 191.28579183 -177.73510803 162.48060864 -172.1875 139.25 C-171.99414062 138.41871582 -171.80078125 137.58743164 -171.6015625 136.73095703 C-165.92403108 113.10524178 -155.14952627 90.42289594 -140.1875 71.25 C-139.55199219 70.42242187 -138.91648438 69.59484375 -138.26171875 68.7421875 C-131.02287712 59.48691504 -123.32332783 50.67091134 -114.1875 43.25 C-112.71410156 42.02023438 -112.71410156 42.02023438 -111.2109375 40.765625 C-80.09161004 15.22100322 -40.45772652 -0.3141296 0 0 Z M-45.1875 47.25 C-45.8479834 47.50265625 -46.5084668 47.7553125 -47.18896484 48.015625 C-61.33439727 53.53711405 -73.67645682 61.32917943 -85.1875 71.25 C-86.14269531 72.07113281 -87.09789062 72.89226562 -88.08203125 73.73828125 C-104.74207765 88.36963337 -117.04076932 106.12117492 -126.1875 126.25 C-126.47109375 126.86842773 -126.7546875 127.48685547 -127.046875 128.12402344 C-140.43643889 157.82422352 -141.21986397 192.84724646 -130.0625 223.25 C-118.08715153 254.3922422 -98.54822083 279.30407498 -70.1875 297.25 C-69.58873047 297.63478516 -68.98996094 298.01957031 -68.37304688 298.41601562 C-39.67623108 316.63056725 -1.80835663 323.55371301 31.45703125 316.41796875 C68.92723764 307.03528379 102.28075354 283.26577023 122.2890625 250.23046875 C142.18532086 216.32858813 147.46138019 181.36239631 137.8125 143.25 C128.13438331 106.29790848 102.43926695 75.69566782 70.1875 56.0625 C57.69582411 49.16368809 43.77687231 44.12124717 29.8125 41.25 C28.98153809 41.07299561 28.15057617 40.89599121 27.29443359 40.71362305 C20.50153908 39.36107828 13.98127096 38.89943931 7.0625 38.9375 C5.98556885 38.94241455 4.9086377 38.9473291 3.79907227 38.95239258 C-12.99525107 39.19162795 -29.4664227 41.1607648 -45.1875 47.25 Z " fill="#FEFEFE" transform="translate(215.1875,86.75)"/>
<path d="M0 0 C0.99 0.495 0.99 0.495 2 1 C-3.9651016 17.84416923 -10.61325131 34.36077203 -17.875 50.6875 C-18.14423641 51.29502704 -18.41347281 51.90255407 -18.6908679 52.52849102 C-38.51152959 97.10090702 -62.83364303 120.41340376 -107.3125 140.125 C-107.92322955 140.39663829 -108.5339591 140.66827659 -109.16319561 140.94814634 C-124.87650216 147.922622 -140.79565532 154.26148235 -157 160 C-157.33 159.34 -157.66 158.68 -158 158 C-157.33329105 156.14366436 -157.33329105 156.14366436 -156.19996643 153.84489441 C-155.56306633 152.53900108 -155.56306633 152.53900108 -154.91329956 151.20672607 C-154.43603424 150.24929504 -153.95876892 149.29186401 -153.46704102 148.30541992 C-152.97285172 147.29878799 -152.47866241 146.29215607 -151.96949768 145.25502014 C-150.32325703 141.90899816 -148.6645463 138.56936555 -147.00390625 135.23046875 C-145.85571914 132.91363436 -144.70760299 130.59676481 -143.55955505 128.27986145 C-141.14519125 123.41356205 -138.72356447 118.55095673 -136.2980957 113.69018555 C-133.50031337 108.08254209 -130.72528045 102.46403836 -127.96041733 96.84010237 C-125.29659626 91.42491583 -122.60848737 86.02215852 -119.91142082 80.62343788 C-118.7691159 78.32857395 -117.63410524 76.03006401 -116.5065937 73.72789574 C-114.92422652 70.50206186 -113.3145293 67.29133598 -111.69750977 64.08276367 C-111.23846252 63.13140533 -110.77941528 62.180047 -110.30645752 61.19985962 C-107.1647088 55.06229953 -104.16296849 52.01923306 -98 49 C-97.24904965 48.60152579 -96.49809931 48.20305159 -95.72439289 47.7925024 C-93.20813141 46.46706747 -90.67169784 45.18928161 -88.12744141 43.91845703 C-87.17363586 43.43819565 -86.21983032 42.95793427 -85.23712158 42.46311951 C-82.11069678 40.89047245 -78.98133809 39.32377925 -75.8515625 37.7578125 C-73.67054445 36.66408856 -71.48958627 35.57024522 -69.3086853 34.47628784 C-64.75261886 32.19228423 -60.19492492 29.91156589 -55.63623047 27.6328125 C-49.78084663 24.70522275 -43.93106732 21.76661562 -38.08260536 18.82522774 C-33.5885106 16.56710007 -29.0908298 14.31619164 -24.59208298 12.06734848 C-22.43212788 10.98618732 -20.27347609 9.90241847 -18.11613846 8.81604385 C-15.11320634 7.30484674 -12.10544075 5.80374443 -9.09619141 4.30517578 C-8.19957794 3.85124954 -7.30296448 3.3973233 -6.37918091 2.92964172 C-5.56340576 2.52594864 -4.74763062 2.12225555 -3.90713501 1.70632935 C-3.19668344 1.3505588 -2.48623188 0.99478825 -1.75425148 0.62823677 C-0.885897 0.31725957 -0.885897 0.31725957 0 0 Z " fill="#FDFDFE" transform="translate(300,192)"/>
<path d="M0 0 C12.23072199 4.50724755 19.56592482 18.44385774 26 29 C28.57837146 25.81843155 31.05981056 22.58113736 33.5 19.29272461 C40.22076198 10.32602049 46.70791193 2.86566585 58 0 C63.98062746 -0.77624663 68.94318472 -0.56275622 74 3 C78.736845 7.81486363 81.16080417 11.00425699 81.375 17.875 C81.31046751 25.19943734 79.27578671 30.53601447 76 37 C75.60039062 37.86882812 75.20078125 38.73765625 74.7890625 39.6328125 C66.88080985 55.68896182 51.05910836 74.32059021 36 84 C22.85795969 84 12.52485624 74.48538192 3.5 65.9375 C-5.16934443 57.08602648 -11.51178381 46.54615616 -16 35 C-16.31839844 34.21625 -16.63679688 33.4325 -16.96484375 32.625 C-19.53454773 25.42509208 -20.06549165 17.55072821 -19 10 C-14.24214316 1.70072806 -9.58427165 -1.63167815 0 0 Z " fill="#FCFBFE" transform="translate(377,63)"/>
<path d="M0 0 C2.69990662 1.79993774 4.5418865 3.083773 6 6 C7.66061616 18.73139059 -2.42238949 32.48531941 -9.80810547 42.11645508 C-15.95161486 49.94861404 -22.40777437 57.54305341 -29 65 C-29.5053125 65.64582031 -30.010625 66.29164063 -30.53125 66.95703125 C-32 68 -32 68 -34.26953125 68.0234375 C-38.02901372 66.61430387 -40.72806407 64.25606127 -43.6875 61.625 C-44.30254395 61.08407715 -44.91758789 60.5431543 -45.55126953 59.98583984 C-58.94807333 48.02677586 -72.57316379 31.82407728 -74.37109375 13.14453125 C-74.43077353 9.70065662 -74.45245012 6.41480772 -74 3 C-73.34 2.34 -72.68 1.68 -72 1 C-65.56329343 1.26708326 -62.8441418 4.38353016 -58.59375 8.8515625 C-51.5486776 17.04093184 -46.55158949 27.27926868 -42 37 C-40.02 37 -38.04 37 -36 37 C-35.75507813 36.29617187 -35.51015625 35.59234375 -35.2578125 34.8671875 C-30.52953137 22.37800355 -21.983818 8.18911349 -9.9375 1.5625 C-6.48329562 0.02211156 -3.80551768 -0.67653648 0 0 Z " fill="#896BFD" transform="translate(443,72)"/>
<path d="M0 0 C4.75085867 3.96372525 9.23613112 8.09794782 13.58984375 12.4921875 C14.47392662 13.37839279 14.47392662 13.37839279 15.37586975 14.28250122 C17.23213727 16.14430404 19.08487085 18.00957745 20.9375 19.875 C22.20614672 21.14867011 23.4750249 22.42210971 24.74414062 23.6953125 C27.83210554 26.79422043 30.91690929 29.89624301 34 33 C31.32787223 36.18208506 27.90467574 37.71233362 24.234375 39.4765625 C22.78432672 40.18746157 21.33446794 40.89874726 19.88476562 41.61035156 C19.09980713 41.99340454 18.31484863 42.37645752 17.50610352 42.77111816 C12.97422427 44.99335043 8.46554843 47.26203666 3.953125 49.5234375 C2.01832729 50.49108165 0.08343052 51.45852774 -1.8515625 52.42578125 C-2.8199707 52.90998535 -3.78837891 53.39418945 -4.78613281 53.89306641 C-18.89306641 60.9465332 -18.89306641 60.9465332 -33 68 C-31.650408 63.65413535 -29.96803761 59.69243264 -27.92724609 55.62744141 C-27.62459335 55.02184387 -27.32194061 54.41624634 -27.01011658 53.79229736 C-26.01834153 51.81012995 -25.02094593 49.83084993 -24.0234375 47.8515625 C-23.33091831 46.47025802 -22.63875439 45.08877537 -21.94692993 43.7071228 C-20.1322418 40.08535328 -18.31276015 36.46601299 -16.49224854 32.84716797 C-14.63253993 29.14827308 -12.77740411 25.4470865 -10.921875 21.74609375 C-7.28570583 14.49515308 -3.64446623 7.24677393 0 0 Z " fill="#896BFD" transform="translate(196,263)"/>
</svg>
